<svg width="32" height="32" viewBox="0 0 32 32" fill="none" xmlns="http://www.w3.org/2000/svg">
<g filter="url(#filter0_b_82_238)">
<path d="M31 16C31 24.2845 24.2845 31 16 31C7.7155 31 1 24.2845 1 16C1 7.717 7.7155 1 16 1C24.2845 1 31 7.717 31 16Z" fill="#DADADA" fill-opacity="0.2"/>
<path d="M16 31.1367C24.36 31.1367 31.1367 24.36 31.1367 16C31.1367 7.64149 24.36 0.863265 16 0.863265C7.63998 0.863265 0.863265 7.64149 0.863265 16C0.863265 24.36 7.63998 31.1367 16 31.1367Z" stroke="url(#paint0_linear_82_238)" stroke-width="0.27347" stroke-linecap="round" stroke-linejoin="round"/>
</g>
<defs>
<filter id="filter0_b_82_238" x="-0.588826" y="-0.588826" width="33.1777" height="33.1777" filterUnits="userSpaceOnUse" color-interpolation-filters="sRGB">
<feFlood flood-opacity="0" result="BackgroundImageFix"/>
<feGaussianBlur in="BackgroundImage" stdDeviation="0.657694"/>
<feComposite in2="SourceAlpha" operator="in" result="effect1_backgroundBlur_82_238"/>
<feBlend mode="normal" in="SourceGraphic" in2="effect1_backgroundBlur_82_238" result="shape"/>
</filter>
<linearGradient id="paint0_linear_82_238" x1="5.77551" y1="4.49504" x2="24.9123" y2="28.1964" gradientUnits="userSpaceOnUse">
<stop stop-color="white" stop-opacity="0.25"/>
<stop offset="1" stop-color="white" stop-opacity="0"/>
</linearGradient>
</defs>
</svg>
