<svg width="16" height="16" viewBox="0 0 16 16" fill="none" xmlns="http://www.w3.org/2000/svg">
<g filter="url(#filter0_b_82_275)">
<path d="M15.4829 5.3891L10.6864 4.69086L8.54222 0.336825C8.48365 0.217614 8.38731 0.12111 8.26829 0.0624508C7.96981 -0.0851436 7.6071 0.0378518 7.45786 0.336825L5.3137 4.69086L0.517213 5.3891C0.384974 5.40802 0.26407 5.47046 0.171503 5.56507C0.0595945 5.68029 -0.0020722 5.83529 5.31712e-05 5.99602C0.00217854 6.15675 0.0679221 6.31006 0.182838 6.42226L3.65316 9.81125L2.83328 14.5967C2.81405 14.708 2.82635 14.8225 2.86878 14.9272C2.91121 15.0319 2.98207 15.1226 3.07333 15.1889C3.16459 15.2553 3.27259 15.2948 3.38509 15.3028C3.4976 15.3109 3.6101 15.2872 3.70983 15.2344L8.00004 12.9751L12.2902 15.2344C12.4074 15.2968 12.5434 15.3177 12.6737 15.295C13.0024 15.2382 13.2235 14.926 13.1668 14.5967L12.3469 9.81125L15.8172 6.42226C15.9117 6.32954 15.974 6.20844 15.9929 6.07598C16.0439 5.74484 15.8135 5.43829 15.4829 5.3891Z" fill="url(#paint0_linear_82_275)"/>
<path d="M10.2378 4.91176L10.354 5.14775L10.6143 5.18565L15.4093 5.88365C15.4094 5.88367 15.4096 5.8837 15.4098 5.88372C15.4711 5.89311 15.5068 5.94785 15.4988 5.99986L15.4987 5.99985L15.4979 6.00538C15.4949 6.02701 15.4846 6.04799 15.4673 6.06515C15.4672 6.06525 15.4671 6.06534 15.467 6.06544L11.9976 9.45353L11.8098 9.63694L11.8541 9.89569L12.674 14.6812L12.674 14.6815C12.6838 14.7382 12.6459 14.7924 12.5886 14.8022L12.5879 14.8024C12.565 14.8064 12.5422 14.8021 12.5255 14.7932L12.5232 14.792L8.23302 12.5327L8.00004 12.41L7.76706 12.5327L3.47685 14.792L3.47608 14.7924C3.45903 14.8014 3.43985 14.8055 3.42071 14.8041C3.40158 14.8027 3.38313 14.796 3.36747 14.7846C3.35181 14.7732 3.33954 14.7576 3.33216 14.7394C3.32478 14.7212 3.32263 14.7012 3.32599 14.6818L3.3261 14.6812L4.14598 9.89569L4.19031 9.63694L4.0025 9.45353L0.532175 6.06454L0.532143 6.06451C0.51204 6.04488 0.500386 6.01788 0.500009 5.98941C0.499637 5.96123 0.51034 5.9342 0.529539 5.91409C0.546603 5.89693 0.567155 5.88704 0.588038 5.88406L0.58924 5.88388L5.38573 5.18565L5.64604 5.14775L5.76226 4.91176L7.90559 0.559398C7.93301 0.505462 7.99722 0.4862 8.04667 0.510649L8.04725 0.510935C8.06716 0.520749 8.08349 0.537025 8.09344 0.557288L8.09366 0.557719L10.2378 4.91176Z" stroke="url(#paint1_linear_82_275)"/>
</g>
<defs>
<filter id="filter0_b_82_275" x="-4.81" y="-4.81" width="25.62" height="24.9243" filterUnits="userSpaceOnUse" color-interpolation-filters="sRGB">
<feFlood flood-opacity="0" result="BackgroundImageFix"/>
<feGaussianBlur in="BackgroundImage" stdDeviation="2.405"/>
<feComposite in2="SourceAlpha" operator="in" result="effect1_backgroundBlur_82_275"/>
<feBlend mode="normal" in="SourceGraphic" in2="effect1_backgroundBlur_82_275" result="shape"/>
</filter>
<linearGradient id="paint0_linear_82_275" x1="-0.636364" y1="16.2319" x2="18.6132" y2="5.09742" gradientUnits="userSpaceOnUse">
<stop stop-color="#F3BE00"/>
<stop offset="1" stop-color="#FBEC65"/>
</linearGradient>
<linearGradient id="paint1_linear_82_275" x1="2.54694" y1="1.78298" x2="12.2094" y2="14.2941" gradientUnits="userSpaceOnUse">
<stop stop-color="white" stop-opacity="0.25"/>
<stop offset="1" stop-color="white" stop-opacity="0"/>
</linearGradient>
</defs>
</svg>
